<svg width="24" height="24" viewBox="0 0 24 24" fill="none" xmlns="http://www.w3.org/2000/svg">
<g clip-path="url(#clip0_1960_185)">
<path d="M5 18H6V17H5V18ZM5.64 20.52L5.04 19.72L5.04 19.72L5.64 20.52ZM9 18V17H8.66667L8.4 17.2L9 18ZM3 6C3 5.44772 3.44772 5 4 5V3C2.34315 3 1 4.34315 1 6H3ZM3 16V6H1V16H3ZM4 17C3.44772 17 3 16.5523 3 16H1C1 17.6569 2.34315 19 4 19V17ZM5 17H4V19H5V17ZM6 20.2V18H4V20.2H6ZM5.04 19.72C5.43554 19.4233 6 19.7056 6 20.2H4C4 21.3537 5.31707 22.0122 6.24 21.32L5.04 19.72ZM8.4 17.2L5.04 19.72L6.24 21.32L9.6 18.8L8.4 17.2ZM20 17H9V19H20V17ZM21 16C21 16.5523 20.5523 17 20 17V19C21.6569 19 23 17.6569 23 16H21ZM21 6V16H23V6H21ZM20 5C20.5523 5 21 5.44772 21 6H23C23 4.34315 21.6569 3 20 3V5ZM4 5H20V3H4V5Z" fill="current"/>
<path d="M11.5874 6.94828C11.7443 6.58768 12.2557 6.58767 12.4126 6.94828L13.255 8.88422C13.3203 9.03413 13.4617 9.13687 13.6244 9.15259L15.7259 9.35552C16.1173 9.39331 16.2754 9.87972 15.9809 10.1404L14.4001 11.5398C14.2776 11.6482 14.2236 11.8144 14.259 11.974L14.7154 14.0354C14.8004 14.4193 14.3866 14.72 14.0477 14.5205L12.2283 13.4494C12.0874 13.3664 11.9126 13.3664 11.7717 13.4494L9.95228 14.5205C9.61338 14.72 9.19962 14.4193 9.28463 14.0354L9.74104 11.974C9.77638 11.8144 9.72237 11.6482 9.59995 11.5398L8.01907 10.1404C7.72461 9.87972 7.88265 9.39331 8.27409 9.35552L10.3756 9.15259C10.5383 9.13687 10.6797 9.03413 10.745 8.88422L11.5874 6.94828Z" fill="current"/>
</g>
<defs>
<clipPath id="clip0_1960_185">
<rect width="24" height="24" fill="white"/>
</clipPath>
</defs>
</svg>
