<svg width="20" height="19" viewBox="0 0 20 19" fill="none" xmlns="http://www.w3.org/2000/svg">
<path d="M9.58737 0.448277C9.74428 0.0876756 10.2557 0.0876746 10.4126 0.448276L12.8879 6.13677C12.9531 6.28668 13.0945 6.38942 13.2573 6.40514L19.4322 7.00141C19.8237 7.03921 19.9817 7.52562 19.6873 7.78628L15.0421 11.8982C14.9197 12.0066 14.8657 12.1728 14.901 12.3325L16.2421 18.3895C16.3271 18.7734 15.9133 19.0741 15.5744 18.8746L10.2283 15.7274C10.0874 15.6444 9.9126 15.6444 9.77171 15.7274L4.42557 18.8746C4.08667 19.0741 3.67291 18.7734 3.75792 18.3895L5.099 12.3325C5.13435 12.1728 5.08033 12.0066 4.95791 11.8982L0.312734 7.78628C0.0182698 7.52562 0.176312 7.03921 0.567752 7.00141L6.74273 6.40514C6.90547 6.38942 7.04687 6.28668 7.11211 6.13677L9.58737 0.448277Z" fill="#E6003D"/>
</svg>
