<svg width="current" height="current" viewBox="0 0 45 43" fill="none" xmlns="http://www.w3.org/2000/svg">
<g filter="url(#filter0_d_2543_1092)">
<path d="M20.9062 1.58495C21.4579 0.258648 23.3367 0.258646 23.8884 1.58494L27.6782 10.6967C27.9107 11.2559 28.4366 11.6379 29.0402 11.6863L38.8771 12.4749C40.309 12.5897 40.8896 14.3766 39.7986 15.3111L32.3039 21.7311C31.844 22.125 31.6432 22.7432 31.7837 23.3322L34.0735 32.9314C34.4067 34.3286 32.8867 35.433 31.6609 34.6842L23.2391 29.5403C22.7223 29.2246 22.0723 29.2246 21.5555 29.5403L13.1338 34.6842C11.9079 35.433 10.3879 34.3286 10.7212 32.9314L13.0109 23.3322C13.1514 22.7432 12.9506 22.125 12.4907 21.7311L4.99598 15.3111C3.90506 14.3766 4.48566 12.5897 5.91751 12.4749L15.7544 11.6863C16.3581 11.6379 16.8839 11.2559 17.1164 10.6967L20.9062 1.58495Z" fill="#E9E9E9"/>
</g>
<defs>
<filter id="filter0_d_2543_1092" x="0.429199" y="0.590332" width="43.936" height="42.3357" filterUnits="userSpaceOnUse" color-interpolation-filters="sRGB">
<feFlood flood-opacity="0" result="BackgroundImageFix"/>
<feColorMatrix in="SourceAlpha" type="matrix" values="0 0 0 0 0 0 0 0 0 0 0 0 0 0 0 0 0 0 127 0" result="hardAlpha"/>
<feOffset dy="4"/>
<feGaussianBlur stdDeviation="2"/>
<feComposite in2="hardAlpha" operator="out"/>
<feColorMatrix type="matrix" values="0 0 0 0 0 0 0 0 0 0 0 0 0 0 0 0 0 0 0.25 0"/>
<feBlend mode="normal" in2="BackgroundImageFix" result="effect1_dropShadow_2543_1092"/>
<feBlend mode="normal" in="SourceGraphic" in2="effect1_dropShadow_2543_1092" result="shape"/>
</filter>
</defs>
</svg>
