<svg width="45" height="43" viewBox="0 0 45 43" fill="none" xmlns="http://www.w3.org/2000/svg">
<path id="Star 5" d="M20.6534 1.43986C21.3365 -0.202729 23.6635 -0.202728 24.3466 1.43986L29.0402 12.7246C29.3282 13.417 29.9794 13.8902 30.727 13.9501L42.9098 14.9268C44.6831 15.0689 45.4022 17.282 44.0511 18.4393L34.7691 26.3903C34.1995 26.8782 33.9508 27.6438 34.1248 28.3733L36.9606 40.2616C37.3734 41.9921 35.4909 43.3598 33.9727 42.4325L23.5425 36.0618C22.9025 35.6708 22.0975 35.6708 21.4575 36.0618L11.0273 42.4325C9.50914 43.3598 7.62663 41.9921 8.03941 40.2616L10.8752 28.3733C11.0492 27.6438 10.8005 26.8782 10.2309 26.3903L0.948914 18.4393C-0.40216 17.282 0.316893 15.0689 2.0902 14.9268L14.273 13.9501C15.0206 13.8902 15.6718 13.417 15.9598 12.7246L20.6534 1.43986Z" fill="#E9E9E9"/>
</svg>
